<svg width="440" height="456" viewBox="0 0 440 456" fill="none" xmlns="http://www.w3.org/2000/svg">
<g clip-path="url(#clip0)">
<path d="M149.032 0C231.207 0 298.065 69.282 298.065 154.452C298.065 189.085 286.872 220.983 268.222 246.779L293.906 273.393L305.161 261.729L429.112 390.18C436.133 397.47 440 407.149 440 417.437C440 438.701 423.308 456 402.797 456C392.856 456 383.51 451.992 376.489 444.702L252.545 316.258L263.8 304.594L238.12 277.976C213.229 297.304 182.451 308.903 149.032 308.903C66.858 308.903 5.72205e-06 239.621 5.72205e-06 154.452C5.72205e-06 69.282 66.858 0 149.032 0ZM386.532 434.309C390.87 438.812 396.647 441.29 402.797 441.29C415.487 441.29 425.806 430.588 425.806 417.437C425.806 411.07 423.415 405.084 419.07 400.573L305.161 282.529L272.616 316.258L386.532 434.309ZM273.836 294.194L283.871 283.793L259.147 258.163C255.959 261.797 252.611 265.259 249.104 268.57L273.836 294.194ZM149.032 294.194C223.386 294.194 283.871 231.509 283.871 154.452C283.871 77.3946 223.386 14.7097 149.032 14.7097C74.679 14.7097 14.1936 77.3946 14.1936 154.452C14.1936 231.509 74.679 294.194 149.032 294.194Z" fill="black"/>
<path d="M194.26 148.634C209.417 153.119 220 167.66 220 183.997V220.645H78.0645V183.997C78.0645 167.66 88.6473 153.119 103.804 148.634L127.742 141.552V139.595C118.899 132.689 113.548 121.825 113.548 110.33V97.15C113.548 77.3802 127.749 60.6271 145.875 58.9931C155.845 58.081 165.703 61.568 173.005 68.5099C180.323 75.4517 184.516 85.3384 184.516 95.6129V110.323C184.516 121.818 179.166 132.689 170.323 139.588V141.545L194.26 148.634ZM159.657 129.306C166.334 125.276 170.323 118.177 170.323 110.323V95.6129C170.323 89.4504 167.81 83.5141 163.409 79.3446C158.967 75.1213 153.156 73.121 147.102 73.6382C136.246 74.615 127.742 84.9326 127.742 97.1428V110.323C127.742 118.177 131.73 125.276 138.408 129.306L141.935 131.432V152.642L107.699 162.776C98.6098 165.477 92.2581 174.2 92.2581 183.997V205.935H205.806V183.997C205.806 174.193 199.455 165.47 190.365 162.776L156.129 152.642V131.432L159.657 129.306Z" fill="black"/>
<path d="M397.419 419.226C397.419 423.287 400.597 426.581 404.516 426.581C408.435 426.581 411.613 423.287 411.613 419.226C411.613 415.164 408.435 411.871 404.516 411.871C400.597 411.871 397.419 415.164 397.419 419.226Z" fill="black"/>
<path d="M58.7043 71.7743L69.3356 81.5209C32.1711 125.075 34.1081 191.38 73.7572 232.457C113.399 273.548 177.364 275.555 219.397 237.039L228.791 248.057C205.962 268.98 177.426 279.351 148.939 279.351C117.998 279.351 87.1122 267.105 63.715 242.857C18.778 196.293 16.5776 121.143 58.7043 71.7743V71.7743Z" fill="black"/>
<path d="M224.3 76.4465C184.651 35.3628 120.687 33.3482 78.6605 71.8641L69.2628 60.8462C116.892 17.1948 189.399 19.4752 234.343 66.0463C279.286 112.617 281.494 187.76 239.36 237.136L228.729 227.389C265.893 183.828 263.949 117.523 224.3 76.4465Z" fill="black"/>
</g>
<defs>
<clipPath id="clip0">
<rect width="440" height="456" fill="white" transform="matrix(-1 0 0 1 440 0)"/>
</clipPath>
</defs>
</svg>
