<svg height="480pt" viewBox="0 0 480 480" width="480pt" xmlns="http://www.w3.org/2000/svg"><path d="m127.488281 373.441406c-.089843-.257812-.152343-.503906-.265625-.753906-.386718-.871094-.929687-1.664062-1.597656-2.34375l-32-32c-.683594-.667969-1.480469-1.210938-2.351562-1.601562-.242188-.101563-.472657-.167969-.722657-.253907-.679687-.234375-1.390625-.375-2.109375-.417969-.160156 0-.3125-.09375-.472656-.09375h-71.96875c-8.835938 0-16 7.164063-16 16v112.023438c0 8.835938 7.164062 16 16 16h96c8.835938 0 16-7.164062 16-16v-88c0-.175781-.089844-.328125-.105469-.503906-.039062-.699219-.175781-1.394532-.40625-2.054688zm-26.800781-5.441406h-4.6875v-4.6875zm-84.6875 96v-112h64v16c0 8.835938 7.164062 16 16 16h16v80zm0 0"/><path d="m303.488281 373.441406c-.089843-.257812-.152343-.503906-.265625-.753906-.386718-.871094-.929687-1.664062-1.597656-2.34375l-32-32c-.683594-.667969-1.480469-1.210938-2.351562-1.601562-.242188-.101563-.472657-.167969-.722657-.253907-.679687-.238281-1.390625-.378906-2.109375-.417969-.136718.007813-.28125-.070312-.441406-.070312h-72c-8.835938 0-16 7.164062-16 16v112c0 8.835938 7.164062 16 16 16h96c8.835938 0 16-7.164062 16-16v-88c0-.175781-.089844-.328125-.105469-.503906-.039062-.699219-.175781-1.394532-.40625-2.054688zm-26.800781-5.441406h-4.6875v-4.6875zm-84.6875 96v-112h64v16c0 8.835938 7.164062 16 16 16h16v80zm0 0"/><path d="m479.894531 375.496094c-.039062-.699219-.175781-1.394532-.40625-2.054688-.089843-.257812-.152343-.503906-.265625-.753906-.386718-.871094-.929687-1.664062-1.597656-2.34375l-32-32c-.683594-.667969-1.480469-1.210938-2.351562-1.601562-.242188-.101563-.472657-.167969-.722657-.253907-.679687-.234375-1.390625-.375-2.109375-.417969-.160156 0-.3125-.09375-.472656-.09375h-71.96875c-8.835938 0-16 7.164063-16 16v112.023438c0 8.835938 7.164062 16 16 16h96c8.835938 0 16-7.164062 16-16v-88c0-.175781-.089844-.328125-.105469-.503906zm-27.207031-7.496094h-4.6875v-4.6875zm-84.6875 96v-112h64v16c0 8.835938 7.164062 16 16 16h16v80zm0 0"/><path d="m64 304c0-4.417969 3.582031-8 8-8h160v24h16v-24h160c4.417969 0 8 3.582031 8 8v16h16v-16c0-13.253906-10.746094-24-24-24h-160v-16h-16v16h-160c-13.253906 0-24 10.746094-24 24v16h16zm0 0"/><path d="m312 144h-40v-19.441406c14.558594-6.328125 23.984375-20.683594 24-36.558594v-28.390625c9.867188-5.699219 15.960938-16.214844 16-27.609375v-24c0-4.417969-3.582031-8-8-8h-80c-22.082031.0273438-39.972656 17.917969-40 40v48c.007812 15.863281 9.4375 30.203125 24 36.496094v19.503906h-40c-30.914062.035156-55.964844 25.085938-56 56v40c0 4.417969 3.582031 8 8 8h240c4.417969 0 8-3.582031 8-8v-40c-.035156-30.914062-25.085938-55.964844-56-56zm-72 26.664062-8-10.664062h16zm-40-82.664062v-48c0-13.253906 10.746094-24 24-24h72v16c-.042969 6.75-4.3125 12.746094-10.679688 14.992188-3.1875 1.132812-5.320312 4.152343-5.320312 7.535156v33.472656c-.023438 9.507812-5.675781 18.101562-14.398438 21.886719-5.828124 2.519531-9.601562 8.261719-9.601562 14.609375v19.503906h-32v-19.503906c0-6.347656-3.773438-12.089844-9.601562-14.609375-8.722657-3.785157-14.375-12.375-14.398438-21.886719zm-32 144v-40h-16v40h-24v-32c.027344-22.082031 17.917969-39.972656 40-40h44l20 26.664062v45.335938zm184 0h-24v-40h-16v40h-64v-45.335938l20-26.664062h44c22.082031.027344 39.972656 17.917969 40 40zm0 0"/></svg>