<svg width="87" height="87" viewBox="0 0 87 87" fill="none" xmlns="http://www.w3.org/2000/svg">
<path d="M70.3489 25.2759C71.2872 25.2759 72.0481 24.5151 72.0481 23.5767V5.09766C72.0481 2.28681 69.7613 0 66.9504 0H5.09888C2.28803 0 0.0012207 2.28681 0.0012207 5.09766V81.9023C0.0012207 84.7132 2.28803 87 5.09888 87H66.9504C69.7613 87 72.0481 84.7132 72.0481 81.9023V69.3839C72.0481 68.4454 71.2872 67.6846 70.3489 67.6846C69.4106 67.6846 68.6497 68.4454 68.6497 69.3839V81.9023C68.6497 82.8393 67.8874 83.6016 66.9504 83.6016H5.09888C4.16193 83.6016 3.39966 82.8393 3.39966 81.9023V5.09766C3.39966 4.16071 4.16193 3.39844 5.09888 3.39844H66.9504C67.8874 3.39844 68.6497 4.16071 68.6497 5.09766V23.5767C68.6497 24.5151 69.4106 25.2759 70.3489 25.2759Z" fill="black"/>
<path d="M36.0247 9.17578C27.4047 9.17578 20.3918 16.1886 20.3918 24.8086C20.3918 29.2804 22.2797 33.3191 25.2995 36.1711C25.3561 36.2316 25.4163 36.2889 25.482 36.341C28.2638 38.8863 31.9659 40.4412 36.0245 40.4412C40.0831 40.4412 43.7852 38.8861 46.5669 36.341C46.6327 36.2889 46.6928 36.2314 46.7494 36.1711C49.7696 33.3191 51.6575 29.2804 51.6575 24.8086C51.6575 16.1886 44.6446 9.17578 36.0247 9.17578ZM36.0247 37.043C33.25 37.043 30.6893 36.1132 28.6346 34.5506C30.128 31.9023 32.9149 30.2461 36.0247 30.2461C39.1344 30.2461 41.9213 31.9023 43.4147 34.5506C41.3599 36.1132 38.7993 37.043 36.0247 37.043ZM33.3059 24.1289V23.0244C33.3059 21.5254 34.5256 20.3057 36.0247 20.3057C37.5237 20.3057 38.7434 21.5254 38.7434 23.0244V24.1289C38.7434 25.628 37.5237 26.8477 36.0247 26.8477C34.5256 26.8477 33.3059 25.628 33.3059 24.1289ZM45.8699 32.0614C44.6167 30.2028 42.88 28.7572 40.8635 27.8648C41.6638 26.8305 42.1418 25.5348 42.1418 24.1289V23.0244C42.1418 19.6513 39.3978 16.9072 36.0247 16.9072C32.6515 16.9072 29.9075 19.6513 29.9075 23.0244V24.1289C29.9075 25.5348 30.3855 26.8305 31.1858 27.8648C29.1693 28.7572 27.4326 30.2028 26.1794 32.0614C24.6791 30.0303 23.7903 27.5217 23.7903 24.8086C23.7903 18.0625 29.2786 12.5742 36.0247 12.5742C42.7707 12.5742 48.259 18.0625 48.259 24.8086C48.259 27.5217 47.3702 30.0303 45.8699 32.0614Z" fill="black"/>
<path d="M45.2004 74.4258H36.0247C35.0863 74.4258 34.3254 75.1865 34.3254 76.125C34.3254 77.0635 35.0863 77.8242 36.0247 77.8242H45.2004C46.1387 77.8242 46.8996 77.0635 46.8996 76.125C46.8996 75.1865 46.1387 74.4258 45.2004 74.4258Z" fill="black"/>
<path d="M45.2004 64.9102H21.0715C20.1332 64.9102 19.3723 65.6709 19.3723 66.6094C19.3723 67.5479 20.1332 68.3086 21.0715 68.3086H45.2004C46.1387 68.3086 46.8996 67.5479 46.8996 66.6094C46.8996 65.6709 46.1387 64.9102 45.2004 64.9102Z" fill="black"/>
<path d="M45.2004 55.3945H21.0715C20.1332 55.3945 19.3723 56.1553 19.3723 57.0938C19.3723 58.0322 20.1332 58.793 21.0715 58.793H45.2004C46.1387 58.793 46.8996 58.0322 46.8996 57.0938C46.8996 56.1553 46.1387 55.3945 45.2004 55.3945Z" fill="black"/>
<path d="M15.0153 46.3768C14.6994 46.0607 14.261 45.8789 13.8124 45.8789C13.3654 45.8789 12.927 46.0607 12.6111 46.3768C12.295 46.6928 12.1132 47.1312 12.1132 47.5781C12.1132 48.025 12.2949 48.4634 12.6111 48.7795C12.9288 49.0955 13.3654 49.2773 13.8124 49.2773C14.261 49.2773 14.6977 49.0955 15.0153 48.7795C15.3314 48.4634 15.5134 48.025 15.5134 47.5781C15.5134 47.1312 15.3315 46.6928 15.0153 46.3768Z" fill="black"/>
<path d="M15.0153 55.8924C14.6977 55.5763 14.261 55.3945 13.8124 55.3945C13.3654 55.3945 12.9288 55.5763 12.6111 55.8924C12.295 56.2085 12.1132 56.6469 12.1132 57.0938C12.1132 57.5406 12.2949 57.979 12.6111 58.2951C12.9288 58.6112 13.3654 58.793 13.8124 58.793C14.261 58.793 14.6977 58.6112 15.0153 58.2951C15.3314 57.979 15.5134 57.5406 15.5134 57.0938C15.5134 56.6469 15.3315 56.2085 15.0153 55.8924Z" fill="black"/>
<path d="M15.0153 65.408C14.6977 65.092 14.261 64.9102 13.8124 64.9102C13.3654 64.9102 12.9288 65.092 12.6111 65.408C12.295 65.7241 12.1132 66.1625 12.1132 66.6094C12.1132 67.0563 12.2949 67.4947 12.6111 67.8107C12.927 68.1268 13.3654 68.3086 13.8124 68.3086C14.261 68.3086 14.6994 68.1268 15.0153 67.8107C15.3314 67.4947 15.5134 67.0563 15.5134 66.6094C15.5134 66.1625 15.3315 65.7241 15.0153 65.408Z" fill="black"/>
<path d="M45.2004 45.8789H21.0715C20.1332 45.8789 19.3723 46.6396 19.3723 47.5781C19.3723 48.5166 20.1332 49.2773 21.0715 49.2773H45.2004C46.1387 49.2773 46.8996 48.5166 46.8996 47.5781C46.8996 46.6396 46.1387 45.8789 45.2004 45.8789Z" fill="black"/>
<path d="M83.432 22.1442C81.7812 21.1911 79.858 20.938 78.0164 21.4312C76.1751 21.9247 74.636 23.1057 73.6831 24.7564L52.2997 61.7931C52.1827 61.9962 52.1086 62.2213 52.0826 62.4543L50.5774 75.9366C50.5027 76.6074 50.832 77.2591 51.4165 77.5967C51.6804 77.749 51.9735 77.8244 52.2659 77.8244C52.6214 77.8244 52.9755 77.7131 53.2737 77.4934L64.197 69.4486C64.3858 69.3096 64.5438 69.1331 64.6609 68.93L86.044 31.8933C88.0117 28.4854 86.8399 24.1119 83.432 22.1442ZM54.3857 72.4537L55.1718 65.4135L60.0896 68.2529L54.3857 72.4537ZM62.5675 65.7591L56.0926 62.0208L73.2521 32.2998L79.727 36.0381L62.5675 65.7591ZM83.101 30.1939L81.4261 33.095L74.9512 29.3567L76.6261 26.4557C77.1253 25.5909 77.9314 24.9724 78.8959 24.714C79.8607 24.4553 80.868 24.5882 81.7326 25.0875C82.5973 25.5867 83.2158 26.3928 83.4743 27.3573C83.7327 28.3217 83.6002 29.3292 83.101 30.1939Z" fill="black"/>
</svg>
