<svg width="87" height="91" viewBox="0 0 87 91" fill="none" xmlns="http://www.w3.org/2000/svg">
<path d="M20.9119 36.8077H15.3219C14.6199 36.8077 13.9466 37.0872 13.4509 37.5844C12.9551 38.0815 12.6779 38.7557 12.6802 39.4579L12.7191 59.5251C12.7191 60.984 13.9019 62.1668 15.3608 62.1668C16.8197 62.1668 18.0025 60.984 18.0025 59.5251V53.4321C19.0826 53.4266 20.2365 53.4219 20.9119 53.4219C25.5535 53.4219 29.3299 49.6953 29.3299 45.1148C29.3299 40.5343 25.5535 36.8077 20.9119 36.8077ZM20.9119 48.1385C20.2305 48.1385 19.0724 48.1432 17.9881 48.1489C17.9824 47.0242 17.9775 45.8131 17.9775 45.1148C17.9775 44.5172 17.9745 43.2667 17.9713 42.0911H20.9117C22.6109 42.0911 24.0464 43.4757 24.0464 45.1148C24.0464 46.7539 22.611 48.1385 20.9119 48.1385Z" fill="black"/>
<path d="M43.3821 36.8077H37.8644C37.163 36.8077 36.4902 37.0867 35.9946 37.5831C35.499 38.0796 35.2213 38.7529 35.2227 39.4543C35.2227 39.4545 35.262 58.8701 35.2622 58.9406C35.2648 59.6413 35.5455 60.3123 36.0429 60.806C36.5379 61.2973 37.2068 61.5728 37.9039 61.5728H37.9139C38.0807 61.5721 42.0163 61.5571 43.5897 61.5296C49.5589 61.4254 53.8913 56.2358 53.8913 49.1902C53.8911 41.784 49.6679 36.8077 43.3821 36.8077ZM43.4974 56.2471C42.8132 56.2591 41.6361 56.2688 40.5368 56.2758C40.5294 53.9812 40.5149 44.4757 40.5109 42.0911H43.3821C48.231 42.0911 48.6077 47.5249 48.6077 49.1904C48.6077 52.6584 47.0276 56.1855 43.4974 56.2471Z" fill="black"/>
<path d="M71.3017 41.8872C72.7607 41.8872 73.9434 40.7044 73.9434 39.2455C73.9434 37.7866 72.7607 36.6038 71.3017 36.6038H63.2246C61.7657 36.6038 60.5829 37.7866 60.5829 39.2455V59.1741C60.5829 60.633 61.7657 61.8158 63.2246 61.8158C64.6836 61.8158 65.8663 60.633 65.8663 59.1741V51.6629H70.6602C72.1191 51.6629 73.3019 50.4801 73.3019 49.0212C73.3019 47.5623 72.1191 46.3795 70.6602 46.3795H65.8663V41.8872H71.3017Z" fill="black"/>
<path d="M79.0749 25.5364H77.1377V24.7828C77.1377 21.387 75.851 18.1598 73.5146 15.6952L62.5419 4.12088C60.0591 1.50207 56.5653 0 52.9564 0H17.7875C13.4175 0 9.86235 3.5552 9.86235 7.9251V25.5364H7.9251C3.5552 25.5364 0 29.0916 0 33.4615V65.1619C0 69.5318 3.5552 73.087 7.9251 73.087H9.86235V82.2449C9.86235 86.6148 13.4175 90.17 17.7875 90.17H69.2126C73.5825 90.17 77.1377 86.6148 77.1377 82.2449V73.087H79.0749C83.4448 73.087 87 69.5318 87 65.1619V33.4615C87 29.0916 83.4448 25.5364 79.0749 25.5364ZM15.1458 7.9251C15.1458 6.46847 16.3308 5.2834 17.7875 5.2834H52.9564C55.1217 5.2834 57.218 6.18457 58.7077 7.75603L69.6805 19.3304C71.0824 20.809 71.8543 22.7454 71.8543 24.7828V25.5364H15.1458V7.9251ZM71.8543 82.2449C71.8543 83.7016 70.6692 84.8866 69.2126 84.8866H17.7875C16.3308 84.8866 15.1458 83.7016 15.1458 82.2449V73.087H71.8543V82.2449ZM81.7166 65.1619C81.7166 66.6186 80.5315 67.8036 79.0749 67.8036H7.9251C6.46847 67.8036 5.2834 66.6186 5.2834 65.1619V33.4615C5.2834 32.0049 6.46847 30.8198 7.9251 30.8198H79.0749C80.5315 30.8198 81.7166 32.0049 81.7166 33.4615V65.1619Z" fill="black"/>
</svg>
