<svg width="91" height="91" viewBox="0 0 91 91" fill="none" xmlns="http://www.w3.org/2000/svg">
<path d="M59.222 6.08083L58.7944 0L1.69666 4.0152L7.08503 80.6397L14.9073 80.0896V91H72.146V84.7302L81.0798 85.6923L89.3035 9.32021L59.222 6.08083ZM14.9073 74.7407L12.0333 74.9428L7.39358 8.9635L53.8461 5.69674L54.4431 14.1862H14.9073V74.7407ZM66.8104 85.6642H20.2431V19.522H66.8104V85.6642ZM76.3462 79.8157L72.1461 79.3634V14.1862H59.7922L59.6024 11.4882L83.4275 14.0536L76.3462 79.8157Z" fill="black"/>
<path d="M60.9272 52.742H26.1275V58.0777H60.9272V52.742Z" fill="black"/>
<path d="M60.9272 62.2325H26.1275V67.5682H60.9272V62.2325Z" fill="black"/>
<path d="M60.9272 71.7229H26.1275V77.0587H60.9272V71.7229Z" fill="black"/>
<path d="M35.7929 40.7532C33.44 40.7532 31.8553 39.1206 31.8553 36.5516C31.8553 33.9826 33.4398 32.35 35.7929 32.35C37.3056 32.35 38.482 33.0703 39.4663 34.3189L43.0437 31.1257C41.387 28.965 38.7939 27.7644 35.5046 27.7644C30.1025 27.7644 26.1408 31.3898 26.1408 36.5519C26.1408 41.7141 30.1023 45.3395 35.5046 45.3391C38.7941 45.3391 41.387 44.1387 43.0437 41.9778L39.4663 38.7846C38.482 40.0329 37.3056 40.7532 35.7929 40.7532Z" fill="black"/>
<path d="M57.0661 28.1483L52.9604 37.9683L48.9507 28.1483H42.8521L49.959 44.9551H55.5294L62.6361 28.1483H57.0661Z" fill="black"/>
</svg>
