<svg width="276" height="333" viewBox="0 0 276 333" fill="none" xmlns="http://www.w3.org/2000/svg">
<path d="M252.713 332.662L41.4082 315.316L64.6956 26.9067L276 44.2527L252.713 332.662Z" fill="url(#paint0_linear)"/>
<path d="M250.18 328.545L44.5679 311.661L67.2295 31.024L272.841 47.9034L250.18 328.545Z" fill="#E5F3FF"/>
<path d="M262.333 284.167L54.1359 324.493L0 40.3256L208.197 0L262.333 284.167Z" fill="url(#paint1_linear)"/>
<path d="M258.799 280.884L56.2121 320.125L3.53491 43.609L206.122 4.37213L258.799 280.884Z" fill="#E5E5E5"/>
<path d="M237.169 21.4634H25.1653V310.828H237.169V21.4634Z" fill="url(#paint2_linear)"/>
<path d="M234.314 25.36H28.0205V306.926H234.314V25.36Z" fill="white"/>
<path d="M97.5396 73.9418C97.7641 92.7826 113.098 107.873 131.785 107.64C150.471 107.407 165.447 91.9531 165.214 73.108C165.141 66.1042 162.917 59.2924 158.845 53.5971C154.772 47.9018 149.048 43.5987 142.449 41.2717L142.552 50.0592C142.598 53.1147 141.433 56.064 139.311 58.2609C137.189 60.4578 134.284 61.7233 131.232 61.7801C128.185 61.7975 125.255 60.6066 123.082 58.4679C120.909 56.3291 119.67 53.4163 119.636 50.3659L119.532 41.5785C112.993 44.0631 107.375 48.5011 103.441 54.2904C99.5069 60.0798 97.4466 66.9404 97.5396 73.9418Z" fill="url(#paint3_linear)"/>
<path d="M165.224 70.3515C165.224 51.5064 150.076 36.2212 131.385 36.2212C112.694 36.2212 97.5457 51.4977 97.5457 70.3515C97.5335 77.3564 99.6746 84.1955 103.679 89.9404C107.682 95.6853 113.355 100.058 119.927 102.464V93.6767C119.924 90.6263 121.128 87.699 123.275 85.5343C125.422 83.3697 128.338 82.1437 131.385 82.1243C134.432 82.1437 137.348 83.3697 139.495 85.5343C141.642 87.699 142.845 90.6263 142.843 93.6767V102.469C149.415 100.062 155.089 95.6887 159.093 89.9429C163.097 84.1972 165.237 77.3572 165.224 70.3515Z" fill="#E5F3FF"/>
<path d="M131.409 78.7762C138.593 78.7762 144.417 72.9038 144.417 65.6598C144.417 58.4158 138.593 52.5434 131.409 52.5434C124.225 52.5434 118.402 58.4158 118.402 65.6598C118.402 72.9038 124.225 78.7762 131.409 78.7762Z" fill="white" stroke="white" stroke-miterlimit="10"/>
<path d="M131.388 82.1242C128.341 82.1436 125.426 83.3696 123.279 85.5342C121.132 87.6989 119.928 90.6262 119.93 93.6767V102.468C127.335 105.145 135.442 105.145 142.846 102.468V93.6767C142.849 90.6262 141.645 87.6989 139.498 85.5342C137.351 83.3696 134.435 82.1436 131.388 82.1242Z" fill="white" stroke="white" stroke-miterlimit="10"/>
<path d="M118.287 64.934C117.243 62.8945 116.764 60.6117 116.902 58.324C117.05 56.0303 118.084 53.8843 119.785 52.3403C121.679 50.7116 124.247 50.137 126.729 49.9383C129.21 49.7395 131.726 49.8605 134.169 49.3723C136.191 48.9572 138.111 48.1428 139.815 46.9767C141.519 45.8106 142.974 44.3162 144.095 42.5808C144.251 44.5033 144.406 46.4691 144.039 48.3527C143.672 50.2364 142.705 52.1114 141.074 53.105C143.051 52.1848 142.835 54.345 142.408 55.6367C143.387 56.8291 145.765 57.0279 145.886 58.5702C146.007 60.1126 145.985 61.7067 145.39 63.1281C144.794 64.5495 145.433 67.0596 143.905 67.1676" fill="white"/>
<path d="M118.287 64.934C117.243 62.8945 116.764 60.6117 116.902 58.324C117.05 56.0303 118.084 53.8843 119.785 52.3403C121.679 50.7116 124.247 50.137 126.729 49.9383C129.21 49.7395 131.726 49.8605 134.169 49.3723C136.191 48.9572 138.111 48.1428 139.815 46.9767C141.519 45.8106 142.974 44.3162 144.095 42.5808C144.251 44.5033 144.406 46.4691 144.039 48.3527C143.672 50.2364 142.705 52.1114 141.074 53.105C143.051 52.1848 142.835 54.345 142.408 55.6367C143.387 56.8291 145.765 57.0279 145.886 58.5702C146.007 60.1126 145.985 61.7067 145.39 63.1281C144.794 64.5495 145.433 67.0596 143.905 67.1676" stroke="white" stroke-miterlimit="10"/>
<path d="M141.8 52.8196C141.8 52.8196 150.863 53.6189 144.416 67.2019L141.8 52.8196Z" fill="white"/>
<path d="M72.6387 147.046V133.809H85.8565V147.046H72.6387Z" stroke="#E5E5E5" stroke-width="5"/>
<path d="M72.6387 208.141V194.904H85.8565V208.141H72.6387Z" stroke="#E5E5E5" stroke-width="5"/>
<path d="M72.6387 268.324V255.087H85.8565V268.324H72.6387Z" stroke="#E5E5E5" stroke-width="5"/>
<path d="M165.225 131.069H97.5901V135.942H165.225V131.069Z" fill="#138FF9"/>
<path d="M211.606 137.891H97.5901V142.764H211.606V137.891Z" fill="#E5E5E5"/>
<path d="M211.606 144.708H97.5901V149.582H211.606V144.708Z" fill="#E5E5E5"/>
<path d="M165.225 191.963H97.5901V196.837H165.225V191.963Z" fill="#138FF9"/>
<path d="M211.606 198.781H97.5901V203.654H211.606V198.781Z" fill="#E5E5E5"/>
<path d="M211.606 205.603H97.5901V210.476H211.606V205.603Z" fill="#E5E5E5"/>
<path d="M165.225 252.854H97.5901V257.727H165.225V252.854Z" fill="#E5F3FF"/>
<path d="M211.606 259.676H97.5901V264.549H211.606V259.676Z" fill="#E5E5E5"/>
<path d="M211.606 266.497H97.5901V271.371H211.606V266.497Z" fill="#E5E5E5"/>
<defs>
<linearGradient id="paint0_linear" x1="147.004" y1="324.019" x2="170.496" y2="35.5029" gradientUnits="userSpaceOnUse">
<stop stop-color="#808080" stop-opacity="0.25"/>
<stop offset="0.54" stop-color="#808080" stop-opacity="0.12"/>
<stop offset="1" stop-color="#808080" stop-opacity="0.1"/>
</linearGradient>
<linearGradient id="paint1_linear" x1="225348" y1="220077" x2="184292" y2="6501.03" gradientUnits="userSpaceOnUse">
<stop stop-color="#808080" stop-opacity="0.25"/>
<stop offset="0.54" stop-color="#808080" stop-opacity="0.12"/>
<stop offset="1" stop-color="#808080" stop-opacity="0.1"/>
</linearGradient>
<linearGradient id="paint2_linear" x1="109828" y1="208208" x2="109828" y2="14397.1" gradientUnits="userSpaceOnUse">
<stop stop-color="#808080" stop-opacity="0.25"/>
<stop offset="0.54" stop-color="#808080" stop-opacity="0.12"/>
<stop offset="1" stop-color="#808080" stop-opacity="0.1"/>
</linearGradient>
<linearGradient id="paint3_linear" x1="133.533" y1="107.089" x2="130.077" y2="40.4898" gradientUnits="userSpaceOnUse">
<stop stop-opacity="0.12"/>
<stop offset="0.55" stop-opacity="0.09"/>
<stop offset="1" stop-opacity="0.02"/>
</linearGradient>
</defs>
</svg>
