<svg width="200" height="200" viewBox="0 0 200 200" fill="none" xmlns="http://www.w3.org/2000/svg">
<path d="M100 198.438C45.7187 198.438 1.5625 154.281 1.5625 100C1.5625 45.7187 45.7187 1.5625 100 1.5625C154.281 1.5625 198.438 45.7187 198.438 100C198.438 154.281 154.281 198.438 100 198.438Z" fill="white"/>
<path d="M100 3.125C153.419 3.125 196.875 46.5812 196.875 100C196.875 153.419 153.419 196.875 100 196.875C46.5812 196.875 3.125 153.419 3.125 100C3.125 46.5812 46.5812 3.125 100 3.125ZM100 0C44.7687 0 0 44.7687 0 100C0 155.231 44.7687 200 100 200C155.231 200 200 155.231 200 100C200 44.7687 155.231 0 100 0Z" fill="#D6D6D6"/>
<path d="M99.9998 92.2375C113.313 92.2375 124.106 81.6602 124.106 68.6125C124.106 55.5648 113.313 44.9875 99.9998 44.9875C86.6863 44.9875 75.8936 55.5648 75.8936 68.6125C75.8936 81.6602 86.6863 92.2375 99.9998 92.2375Z" fill="#0BA4E0"/>
<path d="M141.637 140.869C141.637 118.331 122.994 100.062 99.9998 100.062C77.006 100.062 58.3623 118.331 58.3623 140.869H141.637Z" fill="#0BA4E0"/>
</svg>
